<svg width="55" height="55" viewBox="0 0 55 55" fill="none" xmlns="http://www.w3.org/2000/svg">
<rect width="55" height="55" rx="6" fill="#484F58"/>
<path d="M35.0731 23.9344C33.2298 15.7969 28.8723 13.1223 28.4042 12.1C27.9958 11.5254 27.6313 10.7088 27.3323 10C27.2798 10.7219 27.2521 10.999 26.5696 11.7267C25.5152 12.5521 20.0975 17.0963 19.6571 26.3392C19.2458 34.9608 25.8842 40.0985 26.7854 40.7533L26.8875 40.8263C27.0752 42.2142 27.2356 43.6057 27.3688 45H28.0702C28.2365 43.495 28.4844 42.0017 28.814 40.5229C29.4221 40.0913 29.6948 39.8477 30.0535 39.5123C31.7524 37.9406 33.1026 36.0299 34.0167 33.9037C34.9309 31.7775 35.3886 29.4832 35.3604 27.169C35.375 25.9819 35.2102 24.7452 35.0731 23.9344ZM27.2915 35.8854C27.2915 35.8854 27.2915 23.7944 27.6925 23.7958C28.0031 23.7958 28.4071 39.3927 28.4071 39.3927C27.8515 39.3271 27.2915 36.826 27.2915 35.8854Z" fill="white"/>
</svg>
