<svg width="55" height="55" viewBox="0 0 55 55" fill="none" xmlns="http://www.w3.org/2000/svg">
<rect width="55" height="55" rx="6" fill="#484F58"/>
<path d="M24.3646 22.2792C23.825 22.0604 23.2417 21.9729 22.6438 21.9875C22.2646 21.9875 21.9292 21.9875 21.6521 22.0021C21.3604 21.9875 21.1563 22.0021 21.0542 22.0167V26.9167C21.2583 26.9313 21.4479 26.9458 21.6229 26.9458H22.3958C22.9646 26.9458 23.5333 26.8583 24.0729 26.6833C24.5396 26.5521 24.9479 26.275 25.2688 25.9104C25.575 25.5458 25.7208 25.05 25.7208 24.4083C25.7354 23.9563 25.6188 23.5042 25.3854 23.1104C25.1375 22.7313 24.7875 22.4396 24.3646 22.2792ZM38.8021 10.4375H16.1979C12.7708 10.4375 10 13.2083 10 16.6354V38.3631C10 41.7902 12.7708 44.561 16.1979 44.561H38.8021C42.2292 44.561 45 41.7902 45 38.3631V16.6354C45 13.2083 42.2292 10.4375 38.8021 10.4375ZM28.0235 27.4271C27.4417 28.2438 26.625 28.8563 25.6771 29.2063C24.6854 29.5708 23.5917 29.7021 22.3958 29.7021C22.0458 29.7021 21.8125 29.7021 21.6667 29.6875C21.5208 29.6729 21.3167 29.6729 21.0396 29.6729V34.3527C21.0542 34.4548 20.9813 34.5438 20.8792 34.5583H18.05C17.9333 34.5583 17.875 34.4985 17.875 34.3673V19.3625C17.875 19.2604 17.9188 19.2021 18.0208 19.2021C18.2688 19.2021 18.5021 19.2021 18.8375 19.1875C19.1875 19.1729 19.5521 19.1729 19.9458 19.1583C20.3396 19.1438 20.7625 19.1438 21.2146 19.1292C21.6667 19.1146 22.1042 19.1146 22.5417 19.1146C23.7375 19.1146 24.7292 19.2604 25.5458 19.5667C26.275 19.8146 26.9458 20.2229 27.5 20.7625C27.9667 21.2292 28.3312 21.7979 28.5646 22.425C28.7819 23.0375 28.8985 23.6646 28.8985 24.3208C28.9 25.575 28.6083 26.6104 28.0235 27.4271ZM38.3646 33.1C37.9563 33.6833 37.386 34.134 36.7313 34.3994C36.0167 34.7042 35.1417 34.8631 34.0902 34.8631C33.4208 34.8631 32.7631 34.8063 32.1083 34.675C31.5979 34.586 31.0875 34.4271 30.6208 34.2083C30.5188 34.1515 30.4444 34.0494 30.459 33.9327V31.3952C30.459 31.3529 30.475 31.2931 30.5188 31.264C30.561 31.2348 30.6063 31.2494 30.65 31.2785C31.2188 31.614 31.8167 31.8488 32.4583 31.9931C33.011 32.139 33.5944 32.2119 34.1792 32.2119C34.7333 32.2119 35.1271 32.1375 35.3896 32.0063C35.6229 31.9042 35.7833 31.6563 35.7833 31.3938C35.7833 31.1881 35.6667 31 35.4333 30.8104C35.2 30.6223 34.7202 30.4035 34.0056 30.1235C33.2619 29.861 32.5779 29.511 31.9348 29.075C31.4827 28.7527 31.105 28.3313 30.825 27.8354C30.5931 27.3688 30.4765 26.8583 30.491 26.3465C30.491 25.7194 30.666 25.1215 30.9883 24.5819C31.3529 23.9985 31.891 23.5319 32.5181 23.2402C33.2021 22.8917 34.0625 22.7313 35.0979 22.7313C35.6958 22.7313 36.3083 22.775 36.9063 22.8625C37.3438 22.9208 37.7667 23.0375 38.1604 23.1979C38.2173 23.2125 38.2771 23.2708 38.3063 23.3292C38.3208 23.3875 38.3354 23.4458 38.3354 23.5042V25.8813C38.3354 25.9396 38.3062 25.9979 38.2625 26.0271C38.1312 26.0563 38.0583 26.0563 38 26.0271C37.5625 25.7938 37.0958 25.6333 36.6 25.5313C36.0604 25.4146 35.5208 25.3417 34.9667 25.3417C34.675 25.3271 34.3687 25.3708 34.0902 25.4438C33.9021 25.4875 33.7402 25.5896 33.6381 25.7354C33.5652 25.8521 33.5215 25.9979 33.5215 26.1292C33.5215 26.2604 33.5798 26.3917 33.6687 26.5083C33.8 26.6688 33.9735 26.8 34.1646 26.9021C34.4985 27.0771 34.85 27.2375 35.1985 27.3833C35.9875 27.6458 36.7458 28.0104 37.4458 28.4479C37.9271 28.7527 38.3208 29.1625 38.5965 29.6583C38.8298 30.1221 38.9465 30.6354 38.9319 31.159C38.9479 31.8458 38.7438 32.5298 38.3646 33.1Z" fill="white"/>
</svg>
