<svg width="55" height="55" viewBox="0 0 55 55" fill="none" xmlns="http://www.w3.org/2000/svg">
<rect width="55" height="55" rx="6" fill="#484F58"/>
<path d="M25.3563 25.6479C25.2104 25.1958 25.0792 24.7583 24.9333 24.3063C24.7875 23.8542 24.6563 23.4313 24.5396 23.0083C24.4229 22.6 24.3208 22.2208 24.2188 21.8708H24.1896C24.0583 22.4979 23.8979 23.125 23.6938 23.7521C23.475 24.4521 23.2563 25.1813 23.0229 25.9104C22.8188 26.6542 22.6 27.3396 22.3813 27.9521H26.0854C25.9979 27.6444 25.8813 27.2813 25.75 26.9006C25.6188 26.5083 25.4875 26.0854 25.3563 25.6479ZM38.8021 10.4375H16.1979C12.7708 10.4375 10 13.2083 10 16.6354V38.3646C10 41.7917 12.7708 44.5625 16.1979 44.5625H38.8021C42.2292 44.5625 45 41.7917 45 38.3646V16.6354C45 13.2083 42.2292 10.4375 38.8021 10.4375ZM31.4375 34.5438H28.3881C28.2875 34.5583 28.1854 34.4854 28.1563 34.3833L26.9604 30.9125H21.5354L20.4271 34.3396C20.3979 34.4708 20.2813 34.5583 20.15 34.5452H17.4083C17.2479 34.5452 17.2042 34.4563 17.2479 34.2827L21.9437 20.7625C21.9875 20.6167 22.0313 20.4563 22.0896 20.2813C22.1479 19.975 22.1771 19.6542 22.1771 19.3333C22.1625 19.2604 22.2208 19.1875 22.2938 19.1729H26.0708C26.1875 19.1729 26.2458 19.2167 26.2604 19.2896L31.5833 34.3104C31.6271 34.4694 31.5833 34.5438 31.4375 34.5438ZM36.3958 34.325C36.3958 34.4854 36.339 34.5583 36.2077 34.5583H33.3479C33.2021 34.5583 33.1292 34.4694 33.1292 34.325V23.0958C33.1292 22.95 33.189 22.8917 33.3202 22.8917H36.2077C36.339 22.8917 36.3958 22.9646 36.3958 23.0958V34.325ZM36.091 21.1563C35.7542 21.5063 35.2583 21.6958 34.7625 21.6667C34.2812 21.6813 33.8146 21.4917 33.4631 21.1563C33.1277 20.7917 32.9527 20.3104 32.9673 19.8146C32.9527 19.3188 33.1423 18.8521 33.4908 18.5167C33.8438 18.1813 34.3104 18.0063 34.7917 18.0063C35.3619 18.0063 35.7965 18.1813 36.1188 18.5167C36.4396 18.8667 36.6146 19.3333 36.6 19.8146C36.6146 20.3104 36.4396 20.7917 36.091 21.1563Z" fill="white"/>
</svg>
