<svg width="55" height="55" viewBox="0 0 55 55" fill="none" xmlns="http://www.w3.org/2000/svg">
<rect width="55" height="55" rx="6" fill="#484F58"/>
<path d="M27.4971 45.0004C27.029 45.0004 26.5623 44.8779 26.1525 44.6402L21.8708 42.107C21.2321 41.7497 21.5442 41.6229 21.7542 41.5485C22.6073 41.2524 22.7794 41.1839 23.6908 40.6677C23.7856 40.6137 23.911 40.6341 24.0087 40.6924L27.2988 42.6452C27.4183 42.7108 27.586 42.7108 27.6954 42.6452L40.5215 35.2427C40.641 35.1741 40.7169 35.037 40.7169 34.8956V20.0935C40.7169 19.9491 40.6396 19.8135 40.5171 19.7406L27.6969 12.3439C27.5787 12.2754 27.4212 12.2754 27.3017 12.3439L14.4844 19.742C14.3604 19.8135 14.2817 19.9535 14.2817 20.0935V34.8956C14.2817 35.037 14.3604 35.1712 14.4844 35.2383L17.9975 37.2683C19.9035 38.222 21.0717 37.0991 21.0717 35.9704V21.3564C21.0717 21.1493 21.2379 20.9874 21.445 20.9874H23.071C23.2737 20.9874 23.4429 21.1508 23.4429 21.3564V35.9704C23.4429 38.5152 22.0575 39.9735 19.6454 39.9735C18.9046 39.9735 18.3198 39.9735 16.6908 39.1699L13.325 37.2347C12.4937 36.7549 11.9804 35.8566 11.9804 34.8956V20.0935C11.9804 19.1324 12.4952 18.2341 13.325 17.7558L26.151 10.3445C26.9633 9.88516 28.041 9.88516 28.846 10.3445L41.6706 17.7558C42.5019 18.2356 43.0181 19.1324 43.0181 20.0935V34.8956C43.0181 35.8566 42.5019 36.752 41.6706 37.2347L28.846 44.6402C28.4377 44.8779 27.9725 45.0004 27.4971 45.0004ZM37.8527 30.4068C37.8527 27.636 35.9802 26.8981 32.0383 26.3774C28.0556 25.851 27.6502 25.5783 27.6502 24.6464C27.6502 23.8764 27.9929 22.8483 30.9431 22.8483C33.5783 22.8483 34.5496 23.4156 34.9492 25.1918C34.9842 25.3595 35.1373 25.482 35.3094 25.482H36.9733C37.0769 25.482 37.1746 25.4368 37.2446 25.3639C37.3146 25.2852 37.3525 25.1845 37.3423 25.0781C37.0842 22.0185 35.0512 20.5922 30.9431 20.5922C27.2856 20.5922 25.104 22.1352 25.104 24.7237C25.104 27.531 27.274 28.3068 30.7842 28.6539C34.9842 29.0652 35.3094 29.6791 35.3094 30.5045C35.3094 31.9381 34.1588 32.5491 31.4565 32.5491C28.0629 32.5491 27.3162 31.6974 27.0654 30.0087C27.0362 29.8279 26.8817 29.6952 26.6965 29.6952H25.0383C24.8327 29.6952 24.6679 29.8585 24.6679 30.0641C24.6679 32.2254 25.8433 34.8008 31.4565 34.8008C35.5223 34.8022 37.8527 33.2024 37.8527 30.4068Z" fill="white"/>
</svg>
