<svg width="55" height="55" viewBox="0 0 55 55" fill="none" xmlns="http://www.w3.org/2000/svg">
<rect width="55" height="55" rx="6" fill="#484F58"/>
<path d="M29.7275 10.1441C20.1429 8.91468 11.3736 15.6875 10.1441 25.2736C8.9147 34.8582 15.6861 43.6261 25.2721 44.857C34.8582 46.0864 43.629 39.3136 44.8555 29.7275C46.0864 20.1429 39.3151 11.375 29.7275 10.1441ZM33.3313 21.0602C33.0065 21.0645 32.6962 21.1953 32.4664 21.4248L25.9722 27.9191L25.5244 27.4714L24.5867 26.5336C30.9876 20.1517 32.1412 20.0904 33.3313 21.0602ZM26.2391 28.1495L32.7144 21.6742C32.7992 21.5852 32.9014 21.5145 33.0145 21.4663C33.1277 21.4181 33.2495 21.3935 33.3725 21.394C33.4955 21.3945 33.617 21.4201 33.7298 21.4692C33.8426 21.5183 33.9441 21.5899 34.0283 21.6796C34.1124 21.7693 34.1774 21.8752 34.2192 21.9909C34.261 22.1066 34.2787 22.2295 34.2714 22.3523C34.264 22.4751 34.2317 22.5951 34.1763 22.7049C34.121 22.8148 34.0439 22.9122 33.9496 22.9912L27.0966 29.0071L26.2391 28.1495ZM26.7203 29.1617L25.1161 29.5088C25.0969 29.5131 25.0769 29.5108 25.0591 29.5024C25.0414 29.4939 25.0271 29.4797 25.0184 29.4621C25.0086 29.4453 25.0048 29.4256 25.0074 29.4064C25.01 29.3871 25.019 29.3692 25.033 29.3556L25.9736 28.415L26.7203 29.1617ZM22.6324 28.4923L24.3417 26.783L25.6236 28.0635L22.7374 28.6848C22.7134 28.691 22.6879 28.6888 22.6653 28.6784C22.6427 28.668 22.6244 28.6502 22.6135 28.6279C22.5999 28.6068 22.5943 28.5814 22.5978 28.5566C22.6013 28.5317 22.6136 28.5089 22.6324 28.4923ZM17.3151 37.3273C17.3005 37.326 17.2863 37.3218 17.2734 37.315C17.2604 37.3082 17.2489 37.299 17.2396 37.2877C17.2302 37.2764 17.2232 37.2634 17.2189 37.2495C17.2146 37.2355 17.2131 37.2208 17.2145 37.2062C17.2172 37.1809 17.2285 37.1572 17.2465 37.1391H17.2495L18.6291 35.7595L20.4113 37.5416L17.3151 37.3273ZM20.8517 35.4955C20.7856 35.5297 20.7328 35.585 20.7019 35.6527C20.671 35.7204 20.6636 35.7965 20.6811 35.8689L20.9771 37.1304C20.9867 37.1692 20.9832 37.2102 20.9672 37.2469C20.9512 37.2835 20.9235 37.3139 20.8885 37.3333C20.8535 37.3528 20.8131 37.3601 20.7735 37.3543C20.7339 37.3484 20.6973 37.3297 20.6694 37.301H20.665L19.3029 35.9389L18.8741 35.5086L24.3606 30.028L27.0149 29.4548L28.2896 30.7294C26.4593 32.3366 23.9567 33.9394 20.8517 35.4955ZM28.5506 30.4961H28.5477L27.3241 29.2725L34.1771 23.2566C34.2405 23.2003 34.2986 23.1383 34.3507 23.0714C34.1348 25.0329 31.3916 27.8039 28.5506 30.4961ZM33.884 21.0748L33.8796 21.0719C33.3974 20.5874 33.1205 19.9358 33.1064 19.2524C33.0922 18.569 33.342 17.9064 33.8038 17.4024C34.2655 16.8984 34.9037 16.5918 35.5857 16.5462C36.2677 16.5006 36.9411 16.7195 37.4658 17.1576L35.1178 19.51C35.1015 19.5261 35.0886 19.5453 35.0798 19.5664C35.071 19.5876 35.0665 19.6103 35.0665 19.6332C35.0665 19.6561 35.071 19.6788 35.0798 19.7C35.0886 19.7211 35.1015 19.7403 35.1178 19.7564L36.9364 21.5751C36.4393 21.8218 35.8773 21.9063 35.3296 21.8165C34.782 21.7268 34.2763 21.4673 33.884 21.0748ZM37.6438 21.0748C37.5231 21.1939 37.3907 21.3005 37.2485 21.3928L35.4868 19.6325L37.7225 17.3967C38.6865 18.4468 38.6515 20.0685 37.6438 21.0748ZM37.4979 18.8231C37.4628 18.8485 37.4366 18.8842 37.4227 18.9252C37.4089 18.9662 37.4081 19.0106 37.4206 19.052C37.4725 19.1572 37.4929 19.2751 37.4792 19.3916C37.4654 19.5081 37.4183 19.6181 37.3433 19.7083C37.3266 19.7294 37.3142 19.7535 37.3069 19.7793C37.2995 19.8052 37.2973 19.8322 37.3004 19.8589C37.3036 19.8856 37.3119 19.9114 37.325 19.9349C37.3381 19.9583 37.3558 19.979 37.3769 19.9956C37.4119 20.0231 37.4549 20.0384 37.4994 20.0394C37.5289 20.0391 37.558 20.0324 37.5847 20.0199C37.6114 20.0073 37.635 19.989 37.654 19.9664C37.7792 19.8159 37.8579 19.6322 37.8805 19.4377C37.903 19.2432 37.8684 19.0463 37.7808 18.8712C37.7656 18.8493 37.7461 18.8306 37.7235 18.8163C37.701 18.802 37.6758 18.7923 37.6495 18.7878C37.6231 18.7833 37.5962 18.7842 37.5701 18.7902C37.5441 18.7963 37.5196 18.8074 37.4979 18.8231Z" fill="white"/>
</svg>
