<svg width="55" height="55" viewBox="0 0 55 55" fill="none" xmlns="http://www.w3.org/2000/svg">
<rect width="55" height="55" rx="6" fill="#484F58"/>
<path d="M42.3731 36.9764L28.1253 45.0004V38.7507L37.0025 33.889L42.3731 36.9764ZM43.3477 36.0976V19.3166L38.1339 22.3126V33.0984L43.3477 36.0976ZM12.6269 36.9764L26.8747 45.0004V38.7507L17.9975 33.889L12.6269 36.9764ZM11.6523 36.0976V19.3166L16.866 22.3126V33.0984L11.6523 36.0976ZM12.2623 18.2308L26.8747 10V16.0425L17.5133 21.1689L17.442 21.2098L12.2623 18.2308ZM42.7378 18.2308L28.1253 10V16.0425L37.4867 21.1691L37.558 21.2099L42.7378 18.2308ZM26.8748 37.3292L18.1166 32.5352V23.0353L26.8745 28.0702L26.8748 37.3292ZM28.1253 37.3292L36.8831 32.5352V23.0353L28.1253 28.0702V37.3292ZM18.7097 21.9359L27.5016 17.1212L36.2937 21.9359L27.5017 26.9912L18.7097 21.9359Z" fill="white"/>
</svg>
