<svg width="55" height="55" viewBox="0 0 55 55" fill="none" xmlns="http://www.w3.org/2000/svg">
<rect width="55" height="55" rx="6" fill="#484F58"/>
<path d="M10 10H45V45H10V10ZM42.1329 36.6525C41.8777 35.0556 40.8379 33.714 37.7535 32.4627C36.6802 31.9596 35.4873 31.6096 35.1329 30.8002C35.0002 30.319 34.9798 30.0565 35.0658 29.7721C35.2846 28.83 36.4002 28.5471 37.2752 28.8096C37.844 28.9846 38.369 29.4221 38.6985 30.1221C40.2065 29.1363 40.2065 29.1363 41.2579 28.4815C40.8642 27.869 40.6688 27.605 40.4033 27.344C39.4846 26.3158 38.261 25.7908 36.2704 25.836L35.2423 25.9658C34.2565 26.2065 33.3173 26.7315 32.7485 27.4315C31.086 29.3142 31.5658 32.5954 33.5783 33.9517C35.569 35.4392 38.4798 35.7658 38.8517 37.1673C39.2017 38.8735 37.5829 39.4204 35.9846 39.2235C34.8019 38.961 34.1471 38.369 33.4252 37.2752L30.7565 38.8079C31.0627 39.5079 31.4127 39.8127 31.9377 40.4252C34.4752 42.986 40.819 42.8548 41.9579 38.961C42.0002 38.8298 42.3079 37.9329 42.0658 36.5548L42.1329 36.6525ZM29.0327 26.0869H25.7544C25.7544 28.9131 25.7412 31.7219 25.7412 34.5525C25.7412 36.3492 25.8331 37.9985 25.54 38.506C25.0588 39.5108 23.8192 39.3825 23.2563 39.206C22.6788 38.9202 22.3856 38.5265 22.0458 37.9592C21.954 37.806 21.8854 37.6733 21.8606 37.6733L19.1992 39.314C19.644 40.2327 20.2929 41.0231 21.13 41.5263C22.3769 42.27 24.0525 42.5106 25.8069 42.1169C26.9488 41.7873 27.9331 41.1092 28.4479 40.0592C29.1917 38.7029 29.0342 37.0404 29.0269 35.1796C29.0444 32.1842 29.0269 29.1873 29.0269 26.1685L29.0327 26.0869Z" fill="white"/>
</svg>
