<svg width="55" height="55" viewBox="0 0 55 55" fill="none" xmlns="http://www.w3.org/2000/svg">
<rect width="55" height="55" rx="6" fill="#484F58"/>
<path d="M30.7649 10.2625L32.0709 10.5542L33.1302 10.9333L33.9863 11.3708L34.6393 11.8375L35.1327 12.3333L35.4954 12.8292L35.7276 13.3104L35.8727 13.7479L35.9308 14.1271L35.9598 14.4188L35.9453 14.6083V22.3958L35.8727 23.3146L35.6841 24.1167L35.3794 24.7875L35.0021 25.3417L34.5668 25.7938L34.0879 26.1583L33.58 26.4354L33.0721 26.6396L32.5933 26.7854L32.158 26.8875L31.7807 26.9458L31.476 26.975H22.813L21.8118 27.0479L20.9556 27.2521L20.2301 27.5729L19.6352 27.9667L19.1563 28.4333L18.7645 28.9438L18.4743 29.4688L18.2566 30.0083L18.1115 30.5188L18.01 30.9854L17.9519 31.3792L17.9229 31.6854V36.1479H14.687L14.3823 36.1042L13.976 36.0021L13.5116 35.8271L13.0037 35.5646L12.4813 35.1854L11.959 34.6604L11.4511 33.9896L10.9867 33.1292L10.5804 32.0646L10.2757 30.7813L10.0726 29.25L10 27.4563L10.0871 25.6771L10.3192 24.1604L10.6675 22.8917L11.1318 21.8563L11.6542 21.025L12.2347 20.3833L12.8441 19.9021L13.4536 19.5521L14.034 19.3188L14.5564 19.1729L15.0207 19.1L15.369 19.0854H15.6012L15.6882 19.1H27.529V17.8896H19.0547L19.0402 13.8792L19.0112 13.3396L19.0837 12.8438L19.2434 12.3917L19.4901 11.9833L19.8528 11.6042L20.3027 11.2688L20.8541 10.9771L21.4925 10.7146L22.2326 10.4958L23.0742 10.3208L24.0029 10.175L25.0332 10.0875L26.1505 10.0292L27.3694 10L29.2123 10.0729L30.7649 10.2625ZM21.6231 13.15L21.2894 13.6313L21.1733 14.2292L21.2894 14.8271L21.6231 15.3229L22.102 15.6437L22.6969 15.775L23.2919 15.6437L23.7707 15.3229L24.1045 14.8271L24.2206 14.2292L24.1045 13.6313L23.7707 13.15L23.2919 12.8292L22.6969 12.6979L22.102 12.8292L21.6231 13.15ZM40.6177 18.9104L41.024 18.9979L41.4884 19.1729L41.9963 19.4354L42.5187 19.8292L43.041 20.3396L43.5489 21.025L44.0133 21.8854L44.4196 22.95L44.7243 24.2333L44.9274 25.75L45 27.5438L44.9129 29.3375L44.6808 30.8542L44.3325 32.1083L43.8682 33.1438L43.3458 33.975L42.7653 34.6312L42.1559 35.1125L41.5464 35.4625L40.966 35.6958L40.4436 35.8271L39.9793 35.9L39.631 35.9292L39.3988 35.9146H27.471V37.1104H35.9453L35.9598 41.1354L35.9888 41.6604L35.9163 42.1562L35.7566 42.6083L35.51 43.0313L35.1472 43.3958L34.6973 43.7458L34.1459 44.0375L33.5075 44.2854L32.7674 44.5042L31.9258 44.6938L30.9971 44.825L29.9668 44.9271L28.8495 44.9854L27.6306 45L25.7877 44.9417L24.2351 44.7375L22.9291 44.4458L21.8698 44.0813L21.0137 43.6438L20.3607 43.1625L19.8673 42.6667L19.5046 42.1708L19.2724 41.6896L19.1273 41.2521L19.0692 40.8875L19.0402 40.5958L19.0547 40.4063V32.6188L19.1273 31.6854L19.3159 30.8979L19.6206 30.2271L19.9979 29.6729L20.4333 29.2063L20.9121 28.8563L21.42 28.5646L21.9279 28.3604L22.4067 28.2146L22.842 28.1271L23.2193 28.0688L23.524 28.0396L23.7127 28.025H32.187L33.1882 27.9521L34.0444 27.7479L34.7699 27.4417L35.3648 27.0333L35.8437 26.5667L36.2355 26.0563L36.5257 25.5312L36.7434 25.0063L36.8885 24.4958L36.9901 24.0292L37.0481 23.6208L37.0771 23.3146V18.8521H40.1099L40.313 18.8667L40.6177 18.9104ZM31.2293 39.6917L30.8955 40.1729L30.7794 40.7708L30.8955 41.3688L31.2293 41.85L31.7081 42.1854L32.3031 42.3021L32.898 42.1854L33.3769 41.85L33.7106 41.3688L33.8267 40.7708L33.7106 40.1729L33.3769 39.6917L32.898 39.3562L32.3031 39.2396L31.7081 39.3562L31.2293 39.6917Z" fill="white"/>
</svg>
