<svg width="55" height="55" viewBox="0 0 55 55" fill="none" xmlns="http://www.w3.org/2000/svg">
<rect width="55" height="55" rx="6" fill="#484F58"/>
<path d="M26.2546 10H31.9771V36.4921C29.0415 37.0492 26.886 37.2723 24.5454 37.2723C17.5585 37.2723 13.9171 34.1135 13.9171 28.0556C13.9171 22.2194 17.7817 18.4306 23.7652 18.4306C24.6942 18.4306 25.4 18.5035 26.2546 18.7267V10ZM26.2546 23.3335C25.6325 23.1234 24.9787 23.0228 24.3223 23.036C21.4231 23.036 19.7519 24.8196 19.7519 27.9433C19.7519 30.9913 21.3502 32.6625 24.2858 32.6625C24.9173 32.6625 25.4379 32.626 26.2546 32.5138V23.3335ZM41.0829 18.8375V32.1054C41.0829 36.6758 40.749 38.8692 39.7456 40.7635C38.8167 42.585 37.5902 43.7371 35.0629 45L29.7488 42.4727C32.276 41.2842 33.5025 40.2415 34.2827 38.6446C35.1008 37.0098 35.3604 35.114 35.3604 30.1352V18.836L41.0829 18.8375ZM35.3604 10.0306H41.0829V15.9019H35.3604V10.0306Z" fill="white"/>
</svg>
