<svg width="55" height="55" viewBox="0 0 55 55" fill="none" xmlns="http://www.w3.org/2000/svg">
<rect width="55" height="55" rx="6" fill="#484F58"/>
<path d="M33.1175 23.0973H26.4267V10H33.1175C36.7283 10 39.6654 12.9371 39.6654 16.5479C39.6654 20.1588 36.7283 23.0973 33.1175 23.0973ZM28.5719 20.9521H33.1175C35.5456 20.9521 37.5202 18.976 37.5202 16.5494C37.5202 14.1227 35.5442 12.1467 33.1175 12.1467H28.5719V20.9521ZM28.5719 23.0973H21.8825C18.2717 23.0973 15.3346 20.1602 15.3346 16.5494C15.3346 12.9385 18.2717 10 21.8825 10H28.5733V23.0973H28.5719ZM21.8825 12.1452C19.4544 12.1452 17.4798 14.1212 17.4798 16.5479C17.4798 18.9746 19.4544 20.9521 21.8825 20.9521H26.4281V12.1452H21.8825ZM28.5719 34.0479H21.8825C18.2717 34.0479 15.3346 31.1108 15.3346 27.5C15.3346 23.8892 18.2717 20.9521 21.8825 20.9521H28.5733V34.0479H28.5719ZM21.8825 23.0973C19.4544 23.0973 17.4798 25.0733 17.4798 27.5C17.4798 29.9267 19.4558 31.9027 21.8825 31.9027H26.4281V23.0973H21.8825ZM21.9175 45C18.2877 45 15.3331 42.0629 15.3331 38.4521C15.3331 34.8413 18.2702 31.9042 21.881 31.9042H28.5719V38.3806C28.5719 42.0308 25.5867 45 21.9175 45ZM21.8825 34.0479C20.7153 34.0495 19.5963 34.5138 18.771 35.3391C17.9457 36.1645 17.4813 37.2834 17.4798 38.4506C17.4798 40.8788 19.4704 42.8533 21.9189 42.8533C24.4054 42.8533 26.4296 40.8467 26.4296 38.3792V34.0479H21.8825ZM33.1175 34.0479H32.9746C29.3637 34.0479 26.4267 31.1108 26.4267 27.5C26.4267 23.8892 29.3637 20.9521 32.9746 20.9521H33.1175C36.7283 20.9521 39.6654 23.8892 39.6654 27.5C39.6654 31.1108 36.7283 34.0479 33.1175 34.0479ZM32.976 23.0973C30.5479 23.0973 28.5733 25.0733 28.5733 27.5C28.5733 29.9267 30.5494 31.9027 32.976 31.9027H33.1189C35.5471 31.9027 37.5217 29.9267 37.5217 27.5C37.5217 25.0733 35.5442 23.0973 33.1175 23.0973H32.976Z" fill="white"/>
</svg>
