<svg width="55" height="55" viewBox="0 0 55 55" fill="none" xmlns="http://www.w3.org/2000/svg">
<rect width="55" height="55" rx="6" fill="#484F58"/>
<path d="M41.6137 10.7603C40.1087 9.41863 38.2887 9.95822 36.4906 11.5536C36.2134 11.8019 35.9473 12.0622 35.6929 12.3338C32.6173 15.5961 29.7633 21.638 28.8767 26.2522C29.2223 26.9522 29.4921 27.8461 29.67 28.5286C29.7592 28.8681 29.8389 29.21 29.9092 29.5538C29.9092 29.5538 29.8815 29.4503 29.7692 29.1222L29.6962 28.9093C29.6812 28.87 29.6652 28.8311 29.6481 28.7926C29.4469 28.3259 28.8927 27.3415 28.6477 26.9128C28.4392 27.5297 28.254 28.1057 28.0994 28.6278C28.8052 29.917 29.234 32.1278 29.234 32.1278C29.234 32.1278 29.1975 31.9834 29.0196 31.4832C28.8635 31.0413 28.0804 29.669 27.8937 29.3482C27.5773 30.5207 27.4504 31.3111 27.5642 31.5036C27.7858 31.877 27.9958 32.5215 28.1796 33.2332C28.5967 34.8374 28.8869 36.7915 28.8869 36.7915L28.9117 37.1182C28.8569 38.4545 28.8841 39.7928 28.9933 41.1257C29.1319 42.797 29.3915 44.232 29.7225 45.0005L29.9485 44.878C29.4615 43.3643 29.2631 41.3795 29.3506 39.0928C29.4819 35.5957 30.2869 31.3782 31.7729 26.9828C34.2856 20.3474 37.771 15.023 40.9604 12.4797C38.054 15.1047 34.1179 23.6068 32.9396 26.7538C31.6212 30.2772 30.6865 33.5847 30.1235 36.7536C31.0948 33.783 34.2375 32.507 34.2375 32.507C34.2375 32.507 35.779 30.6053 37.58 27.8899C36.5008 28.1363 34.729 28.5578 34.1354 28.8072C33.2604 29.1732 33.0242 29.2986 33.0242 29.2986C33.0242 29.2986 35.8606 27.572 38.2931 26.7903C41.6385 21.5213 45.2844 14.0357 41.6137 10.7603ZM14.5281 11.5522C13.819 11.5549 13.1396 11.8379 12.6383 12.3395C12.137 12.841 11.8544 13.5205 11.8521 14.2297V38.4497C11.8544 39.1586 12.1371 39.8377 12.6385 40.3389C13.1399 40.84 13.8192 41.1223 14.5281 41.1243H28.2627C28.1598 39.811 28.1345 38.4928 28.1869 37.1765C28.1781 37.0861 28.1708 36.9709 28.1635 36.8849C27.9856 35.7192 27.7555 34.562 27.4737 33.417C27.2973 32.7315 27.0727 32.1074 26.9356 31.8755C26.7665 31.5882 26.7927 31.4234 26.7942 31.2455C26.7942 31.0705 26.816 30.8882 26.8481 30.6826C26.9345 30.1689 27.0484 29.6601 27.1894 29.1586L27.5058 29.1178C27.481 29.0668 27.4854 29.023 27.4606 28.9763L27.4008 28.4207C27.5754 27.8368 27.7611 27.2563 27.9579 26.6795L28.2496 26.6518C28.2379 26.6284 28.235 26.5963 28.2233 26.5745L28.1606 26.1136C29.0794 21.3303 31.9333 15.2593 35.1606 11.8351C35.2569 11.7345 35.3546 11.6484 35.4494 11.5522H14.5281Z" fill="white"/>
</svg>
