<svg width="55" height="55" viewBox="0 0 55 55" fill="none" xmlns="http://www.w3.org/2000/svg">
<rect width="55" height="55" rx="6" fill="#484F58"/>
<path d="M27.5 10C37.1644 10 45 17.8356 45 27.5C45 37.1644 37.1644 45 27.5 45C17.8356 45 10 37.1644 10 27.5C10 17.8356 17.8356 10 27.5 10ZM24.0219 33.3304C24.2771 34.271 24.2494 35.1504 23.9869 35.9438L23.8921 36.2062C23.8571 36.2952 23.8163 36.3813 23.7783 36.4629C23.5742 36.8858 23.3029 37.2796 22.969 37.6442C21.951 38.751 20.5306 39.171 19.921 38.8181C19.2648 38.436 19.5915 36.8712 20.7727 35.6244C22.0429 34.2856 23.8644 33.4238 23.8644 33.4238V33.4194L24.0219 33.3304ZM38.4754 17.4915C37.685 14.3808 32.5298 13.3585 27.6517 15.0925C24.751 16.1235 21.6083 17.7437 19.3494 19.8569C16.6617 22.3667 16.2344 24.5542 16.4108 25.4685C17.0335 28.6929 21.4523 30.8017 23.2694 32.3665V32.3752C22.7342 32.6377 18.8127 34.605 17.894 36.6408C16.9096 38.7846 18.0471 40.3173 18.7908 40.5127C21.0877 41.1485 23.4502 39.9877 24.719 38.1079C25.944 36.269 25.836 33.9065 25.3081 32.7471C26.0315 32.5502 26.8831 32.4627 27.9769 32.5954C31.0408 32.9454 31.6533 34.8704 31.5206 35.6579C31.3894 36.444 30.7579 36.9033 30.5377 37.0346C30.319 37.1673 30.2533 37.2096 30.2738 37.2985C30.2956 37.4298 30.4065 37.4298 30.58 37.4079C30.8206 37.3642 32.1783 36.7517 32.244 35.2627C32.3096 33.3815 30.5144 31.2829 27.3221 31.3252C26.0096 31.3485 25.1769 31.4579 24.5877 31.6985C24.544 31.6329 24.4988 31.5892 24.4346 31.5454C22.4658 29.4235 18.8127 27.936 18.9658 25.1142C19.0096 24.086 19.3815 21.375 25.9658 18.0938C31.369 15.4017 35.6798 16.1469 36.4235 17.7875C37.4925 20.1267 34.1252 24.4813 28.5033 25.1142C26.3596 25.3548 25.244 24.525 24.9581 24.2173C24.6533 23.8892 24.6096 23.8673 24.5002 23.9344C24.3252 24.0219 24.4346 24.3063 24.5002 24.4813C24.6752 24.9188 25.3533 25.6844 26.536 26.0781C27.5627 26.4062 30.0798 26.6017 33.0985 25.4219C36.4877 24.1108 39.1346 20.4563 38.369 17.3938L38.4754 17.4915Z" fill="white"/>
</svg>
