<svg width="55" height="55" viewBox="0 0 55 55" fill="none" xmlns="http://www.w3.org/2000/svg">
<rect width="55" height="55" rx="6" fill="#484F58"/>
<path d="M44.3383 25.9401L29.0562 10.6595C28.1754 9.78015 26.7491 9.78015 25.8654 10.6595L22.6993 13.8314L26.7243 17.8565C27.665 17.5429 28.7354 17.7544 29.4792 18.4996C30.2317 19.2507 30.4388 20.3342 30.1179 21.2705L33.9942 25.1497C34.9348 24.8245 36.0169 25.0359 36.7651 25.7841C37.8165 26.8341 37.8165 28.5316 36.7651 29.5816C35.7165 30.6302 34.0219 30.6302 32.9734 29.5816C32.1873 28.7926 31.9904 27.6318 32.3842 26.6707L28.7544 23.0599V32.5756C29.011 32.701 29.2531 32.8716 29.466 33.0831C30.5058 34.1346 30.5058 35.8292 29.466 36.8748C28.4175 37.9263 26.7112 37.9263 25.6612 36.8748C24.6127 35.8263 24.6127 34.1346 25.6612 33.086C25.9266 32.8235 26.2256 32.6252 26.5435 32.4939V22.8849C26.227 22.7522 25.9252 22.5611 25.6685 22.3001C24.8737 21.5053 24.6827 20.343 25.091 19.3703L21.1359 15.3963L10.6563 25.8687C9.78125 26.751 9.78125 28.1787 10.6563 29.061L25.9397 44.3401C26.8206 45.2209 28.2469 45.2209 29.1277 44.3401L44.3383 29.1295C45.2206 28.2501 45.2206 26.8224 44.3383 25.9401Z" fill="white"/>
</svg>
