<svg width="55" height="55" viewBox="0 0 55 55" fill="none" xmlns="http://www.w3.org/2000/svg">
<rect width="55" height="55" rx="6" fill="#484F58"/>
<path d="M30.7521 27.5058C30.7521 28.3704 30.4087 29.1996 29.7975 29.8111C29.1863 30.4226 28.3573 30.7663 27.4927 30.7667C26.6279 30.7667 25.7985 30.4231 25.187 29.8116C24.5754 29.2001 24.2319 28.3707 24.2319 27.5058C24.2319 26.6413 24.5752 25.8121 25.1864 25.2006C25.7976 24.5891 26.6267 24.2454 27.4913 24.245C28.3561 24.245 29.1855 24.5885 29.797 25.2001C30.4085 25.8116 30.7521 26.641 30.7521 27.5058ZM34.6138 11.9162C32.6508 11.9162 30.0827 13.3162 27.4854 15.74C24.8896 13.3294 22.32 11.9454 20.3585 11.9454C19.7606 11.9454 19.2167 12.081 18.7456 12.3508C16.7404 13.5073 16.2913 17.1108 17.3267 21.6331C12.8875 23.004 10 25.1958 10 27.5058C10 29.8246 12.9021 32.0223 17.3544 33.3829C16.3277 37.9227 16.7856 41.5321 18.7952 42.6871C19.2619 42.9598 19.8015 43.0881 20.4023 43.0881C22.3638 43.0881 24.9333 41.6881 27.5306 39.2615C30.1265 41.6735 32.696 43.0575 34.6575 43.0575C35.2554 43.0575 35.7994 42.9262 36.2704 42.6565C38.2742 41.5015 38.7248 37.8979 37.6894 33.3742C42.1125 32.015 45 29.8187 45 27.5058C45 25.1871 42.0979 22.9894 37.6456 21.6258C38.6723 17.0904 38.2144 13.4781 36.2048 12.3217C35.741 12.0533 35.2029 11.9177 34.6138 11.9162ZM34.6065 13.5058V13.5146C34.9346 13.5146 35.1985 13.5787 35.4202 13.6998C36.3915 14.2569 36.8129 16.3758 36.4848 19.1015C36.406 19.7723 36.2777 20.4796 36.1202 21.2015C34.7202 20.8573 33.1948 20.5933 31.5892 20.4227C30.6267 19.1029 29.6277 17.9042 28.6215 16.8542C30.9431 14.6958 33.1233 13.5117 34.6079 13.5073L34.6065 13.5058ZM20.3585 13.535C21.8344 13.535 24.0248 14.7133 26.3523 16.86C25.3519 17.91 24.3544 19.1015 23.4065 20.4212C21.7921 20.5919 20.2652 20.8558 18.8667 21.2058C18.7033 20.4912 18.5823 19.8 18.4963 19.135C18.1608 16.4108 18.575 14.2933 19.5375 13.729C19.8146 13.5977 20.1208 13.5423 20.3585 13.535ZM27.4781 17.9829C28.1417 18.6654 28.8052 19.4296 29.4615 20.2637C28.8198 20.2346 28.1635 20.2142 27.5 20.2142C26.8292 20.2142 26.1656 20.2287 25.5167 20.2637C26.1583 19.4296 26.8219 18.6669 27.4781 17.9829ZM27.5 21.8125C28.5792 21.8125 29.654 21.8621 30.7113 21.9481C31.3033 22.7969 31.8808 23.7025 32.4365 24.6606C32.979 25.594 33.4719 26.5419 33.921 27.4985C33.4719 28.4537 32.979 29.409 32.4438 30.3423C31.8896 31.3048 31.3165 32.2206 30.7229 33.0694C29.6613 33.1612 28.585 33.2123 27.5 33.2123C26.4208 33.2123 25.346 33.1612 24.2888 33.0767C23.6967 32.2279 23.1192 31.3208 22.5635 30.3642C22.021 29.4308 21.5281 28.4829 21.079 27.5262C21.5208 26.5681 22.021 25.6115 22.5562 24.6767C23.1104 23.7142 23.6835 22.8012 24.2771 21.9525C25.3388 21.8592 26.415 21.8096 27.5 21.8096V21.8125ZM22.199 22.1829C21.849 22.7327 21.499 23.2956 21.1723 23.8746C20.8442 24.4433 20.5379 25.015 20.2463 25.5867C19.8598 24.63 19.5317 23.6762 19.2604 22.7473C20.1938 22.5285 21.1781 22.3331 22.199 22.1829ZM32.7865 22.1829C33.8 22.3331 34.7771 22.5183 35.7119 22.7473C35.4494 23.669 35.1213 24.6169 34.7494 25.5662C34.4577 24.9975 34.1515 24.4244 33.816 23.8542C33.4879 23.2825 33.1379 22.7254 32.7879 22.1829H32.7865ZM37.2533 23.1673C37.9592 23.386 38.63 23.6296 39.2585 23.8935C41.7844 24.9727 43.4177 26.3844 43.4177 27.5044C43.4104 28.6244 41.7771 30.0419 39.2513 31.1137C38.6388 31.3762 37.9679 31.6125 37.2752 31.8327C36.8669 30.4356 36.3331 28.9802 35.671 27.4869C36.3273 26.0037 36.8523 24.5556 37.2533 23.1644V23.1673ZM17.719 23.1731C18.1244 24.5731 18.6596 26.0271 19.3231 27.519C18.6669 29.0021 18.139 30.4502 17.7394 31.8415C17.0335 31.6227 16.3627 31.3777 15.7415 31.1123C13.2156 30.0375 11.5823 28.6244 11.5823 27.5044C11.5823 26.3844 13.2156 24.964 15.7415 23.8935C16.354 23.631 17.0248 23.3948 17.719 23.1731ZM34.7494 29.4148C35.1358 30.3729 35.464 31.3281 35.7352 32.2556C34.8019 32.4846 33.816 32.6785 32.7952 32.8244C33.1452 32.2775 33.4952 31.7131 33.8233 31.1356C34.1515 30.5669 34.4563 29.9865 34.7494 29.4148ZM20.2463 29.444C20.5379 30.0156 20.8442 30.5858 21.1796 31.1575C21.515 31.7262 21.8577 32.2833 22.2077 32.8244C21.1942 32.6756 20.2171 32.489 19.2823 32.2615C19.5448 31.3427 19.8744 30.3919 20.2448 29.4425L20.2463 29.444ZM36.1333 33.8C36.2967 34.519 36.425 35.2117 36.5038 35.8752C36.8392 38.5994 36.425 40.7169 35.4625 41.2827C35.2481 41.414 34.9696 41.4694 34.6415 41.4694C33.1656 41.4694 30.9752 40.2925 28.6477 38.1444C29.6481 37.0944 30.6456 35.9044 31.5935 34.586C33.2079 34.414 34.7348 34.15 36.1333 33.8ZM18.8813 33.8146C20.2813 34.1558 21.8067 34.4198 23.4123 34.5904C24.3748 35.9102 25.3738 37.109 26.38 38.1575C24.054 40.3202 21.8708 41.5044 20.3863 41.5044C20.0654 41.4971 19.7942 41.4315 19.5798 41.3119C18.6085 40.7577 18.1871 38.6373 18.5152 35.9117C18.594 35.2408 18.7238 34.535 18.8813 33.8146ZM25.5312 34.7479C26.1729 34.7771 26.8292 34.7975 27.4927 34.7975C28.1635 34.7975 28.8271 34.7829 29.476 34.7479C28.8344 35.5821 28.1708 36.3448 27.5146 37.0302C26.851 36.3448 26.1875 35.5821 25.5312 34.7479Z" fill="white"/>
</svg>
