<svg width="55" height="55" viewBox="0 0 55 55" fill="none" xmlns="http://www.w3.org/2000/svg">
<rect width="55" height="55" rx="6" fill="#484F58"/>
<path d="M45 37.1075C44.4906 37.3001 43.9283 37.2997 43.4192 37.1063C42.9101 36.9129 42.4894 36.5398 42.2365 36.0575L37.2052 29.0998L36.476 28.1271L30.6383 36.0662C30.4006 36.5283 30.0027 36.888 29.5191 37.078C29.0354 37.268 28.4991 37.2754 28.0104 37.0987L35.5325 27.0071L28.5354 17.891C29.0385 17.7097 29.5888 17.7073 30.0935 17.8842C30.5981 18.0611 31.0264 18.4065 31.3063 18.8623L36.5213 25.906L41.7654 18.8915C42.005 18.4376 42.403 18.0876 42.8837 17.908C43.3645 17.7284 43.8945 17.7317 44.3729 17.9173L41.6575 21.5208L37.9796 26.3085C37.8774 26.3996 37.7957 26.5113 37.7398 26.6362C37.6838 26.7611 37.6549 26.8965 37.6549 27.0333C37.6549 27.1702 37.6838 27.3055 37.7398 27.4304C37.7957 27.5553 37.8774 27.667 37.9796 27.7581L44.9854 37.1089L45 37.1075ZM10.0029 26.8817L10.6154 23.8556C12.2983 17.8721 19.1583 15.3827 23.8775 19.0869C26.6411 21.2583 27.3308 24.3325 27.1952 27.7975H11.6275C11.3752 33.9852 15.8406 37.7214 21.55 35.8125C22.4756 35.4793 23.304 34.9218 23.9612 34.1898C24.6183 33.4578 25.0836 32.5743 25.3154 31.6183C25.6173 30.6471 26.1146 30.4808 27.0275 30.7608C26.8754 31.9455 26.4566 33.0803 25.8026 34.0799C25.1486 35.0794 24.2765 35.9176 23.2519 36.5314C21.5594 37.4572 19.6175 37.8242 17.7038 37.5798C15.7902 37.3354 14.0028 36.4922 12.5973 35.1708C11.2076 33.6066 10.3676 31.6307 10.2056 29.5446C10.2056 29.2019 10.089 28.881 10.0102 28.5733C10.0031 28.0099 9.99972 27.4465 10 26.8831L10.0029 26.8817ZM11.6465 26.4646H25.7252C25.6377 21.9787 22.8071 18.7967 19.0315 18.7675C14.8286 18.7092 11.8215 21.8212 11.6363 26.4442L11.6465 26.4646Z" fill="white"/>
</svg>
