<svg width="55" height="55" viewBox="0 0 55 55" fill="none" xmlns="http://www.w3.org/2000/svg">
<rect width="55" height="55" rx="6" fill="#484F58"/>
<path d="M18.6566 16.8454C18.1666 16.8454 17.6723 16.9591 17.1793 17.1691C16.6835 17.3806 16.1935 17.6737 15.7108 18.0514C15.1985 18.452 14.7249 18.8997 14.2962 19.3887C13.8398 19.905 13.4067 20.4752 13.0027 21.0862C12.6002 21.6987 12.2254 22.3506 11.8652 23.0112H11.8637V23.0126C11.5152 23.7024 11.2104 24.4126 10.945 25.1345C10.6825 25.8578 10.4725 26.5826 10.3062 27.3176C10.1458 28.0468 10.0467 28.757 10.0146 29.4541C10.0058 29.4978 10.0009 29.5422 10 29.5868V29.7253C10 30.1059 10.0554 30.4982 10.1094 30.857V30.8599L10.1108 30.8628C10.21 31.2449 10.366 31.5978 10.5629 31.9084C10.7648 32.2151 11.0323 32.4731 11.346 32.6639C11.6625 32.8651 12.0373 32.9657 12.4777 32.9657C12.8612 32.9657 13.2594 32.8782 13.6692 32.6959C14.076 32.5136 14.4814 32.2759 14.8854 31.9974C15.2762 31.7174 15.6671 31.3966 16.0433 31.0349C16.3452 30.7549 16.6208 30.4632 16.8935 30.1745L16.6077 31.0612C16.4837 31.4884 16.3452 31.9011 16.2329 32.3051C16.1089 32.7047 16.0112 33.0634 15.9281 33.3814C15.845 33.6964 15.7881 33.9093 15.7881 34.0463V34.3599C15.7881 34.7113 15.8246 34.9593 15.9398 35.1153C15.9971 35.1884 16.0711 35.2467 16.1556 35.2853C16.2401 35.3238 16.3326 35.3416 16.4254 35.337C16.566 35.3349 16.7019 35.2862 16.8118 35.1984C16.93 35.1109 17.0306 34.9986 17.1312 34.8718V34.8688L17.1341 34.8674C17.2173 34.7405 17.3018 34.6049 17.3733 34.462C17.4462 34.3147 17.4871 34.1849 17.5293 34.0697L17.627 33.7182L17.8356 32.9964L18.1127 32.0309C18.2235 31.6707 18.3198 31.3091 18.4437 30.9416L18.7718 29.8478C18.8768 29.492 18.976 29.1697 19.0679 28.8839C19.1598 28.5922 19.237 28.356 19.3012 28.1649C19.3304 28.0701 19.3595 27.9957 19.38 27.9403L19.4004 27.8937L19.4587 27.9199L19.485 27.8499C19.5958 27.532 19.7052 27.2272 19.816 26.937C19.9268 26.6453 20.0377 26.3537 20.1222 26.0664C20.3383 25.4629 20.4469 24.8262 20.4431 24.1851C20.4446 24.0575 20.4198 23.9309 20.3702 23.8133C20.3329 23.712 20.2707 23.6217 20.1893 23.5508C20.1155 23.4855 20.0292 23.4359 19.9356 23.4049C19.846 23.3761 19.7526 23.3613 19.6585 23.3612C19.46 23.3641 19.2673 23.4289 19.1073 23.5464C18.9191 23.6718 18.7791 23.8804 18.6741 24.1618L17.872 26.7358C17.7374 26.9967 17.5829 27.2468 17.4098 27.4839C16.7014 28.4817 15.8627 29.3816 14.916 30.157C14.6141 30.4049 14.3269 30.5959 14.041 30.7462C13.8194 30.8765 13.5688 30.9497 13.3119 30.9591C13.1472 30.9641 12.9861 30.9109 12.8569 30.8089C12.723 30.7048 12.6201 30.5662 12.5594 30.4078C12.4861 30.2268 12.4361 30.0371 12.4106 29.8434C12.3834 29.6394 12.3697 29.4339 12.3698 29.228C12.3698 28.6257 12.466 27.9535 12.6585 27.1951C12.851 26.4368 13.1135 25.6785 13.4446 24.8924C13.7756 24.1049 14.1621 23.3466 14.5908 22.6014C15.0181 21.8562 15.4731 21.1941 15.9412 20.6152C16.4079 20.0377 16.8746 19.5856 17.3558 19.2297C17.8327 18.8739 18.26 18.7018 18.6712 18.7018C18.9285 18.698 19.1811 18.7717 19.396 18.9133C19.6177 19.0562 19.8189 19.2968 20.0085 19.6366C20.2039 20.0143 20.4008 20.306 20.57 20.5189C20.745 20.7377 20.9477 20.8499 21.165 20.8499C21.2829 20.8511 21.3994 20.8242 21.5049 20.7715C21.6104 20.7187 21.7018 20.6417 21.7716 20.5466C21.9393 20.3454 22.0195 20.0697 22.0195 19.7358C22.0195 19.5958 22.0049 19.4441 21.9758 19.2881C21.9426 19.1132 21.8731 18.9472 21.7716 18.801C21.3137 18.1156 20.8222 17.6241 20.2987 17.3077H20.2958C19.8001 17.0095 19.235 16.8499 18.6566 16.8454ZM34.6413 18.0923C34.4299 18.0955 34.2233 18.1559 34.0434 18.2673L34.0405 18.2687C33.8225 18.4224 33.6599 18.6423 33.5768 18.8958L30.822 25.8345L30.2139 27.3585C29.9907 27.9126 29.7837 28.4668 29.562 29.0326C29.4603 29.2951 29.3746 29.5634 29.3053 29.8362C29.1839 29.9448 29.0589 30.0494 28.9305 30.1497C28.6287 30.383 28.3428 30.5595 28.0716 30.682H28.0687C27.8003 30.8176 27.5743 30.8701 27.3935 30.8701C27.2739 30.8701 27.1937 30.8409 27.1426 30.7928C27.0916 30.7447 27.061 30.6703 27.061 30.5507C27.061 30.2809 27.1018 29.982 27.1835 29.6539C27.2666 29.333 27.376 28.9962 27.4999 28.6578C27.6188 28.3169 27.7521 27.9812 27.8995 27.6516L28.302 26.7124C28.4274 26.4208 28.5251 26.1553 28.6083 25.9337C28.6823 25.7591 28.7262 25.5732 28.738 25.3839C28.7411 25.1542 28.6678 24.93 28.5295 24.7466C28.4636 24.6585 28.3776 24.5874 28.2787 24.5392C28.1798 24.491 28.0708 24.4671 27.9608 24.4695C27.8549 24.4671 27.7499 24.4894 27.6542 24.5347C27.5585 24.58 27.4747 24.6471 27.4095 24.7306C27.2535 24.9132 27.1284 25.1201 27.0391 25.3431C26.9224 25.5966 26.8244 25.8583 26.746 26.1262C26.6643 26.4033 26.5549 26.6628 26.4441 26.9064C26.2793 27.271 26.0853 27.6705 25.8374 28.111C25.5949 28.5442 25.3195 28.9581 25.0135 29.3491C24.7116 29.7282 24.3835 30.0476 24.0291 30.3028C23.6791 30.558 23.3072 30.6776 22.9354 30.6776C22.8143 30.6776 22.7341 30.6339 22.6918 30.5493C22.6398 30.4479 22.6137 30.3351 22.616 30.2212C22.6306 29.9237 22.6831 29.6101 22.7793 29.2835C22.8756 28.9597 22.9849 28.6374 23.1089 28.321C23.2329 28.0147 23.3714 27.7026 23.5216 27.4095C23.6747 27.1164 23.8133 26.8393 23.9504 26.5928V26.5914L24.312 25.906C24.4112 25.7076 24.4681 25.5516 24.5089 25.4247L24.5104 25.4218C24.5249 25.3635 24.541 25.2891 24.541 25.2089C24.5431 25.0997 24.5159 24.9919 24.4622 24.8968V24.8953L24.4608 24.8939C24.4068 24.8062 24.3357 24.7303 24.2518 24.6707C24.1679 24.611 24.0728 24.5689 23.9722 24.5468C23.8277 24.5015 23.6744 24.4915 23.5252 24.5177C23.376 24.5438 23.2353 24.6053 23.1147 24.697C22.9222 24.8297 22.7779 25.0353 22.6495 25.3183C22.2278 26.1846 21.8434 27.0687 21.4974 27.968C21.2204 28.7045 21.0264 29.301 20.8879 29.7603C20.7825 30.094 20.703 30.4353 20.6502 30.7812V30.7826L20.621 31.1195V31.1224C20.621 31.4345 20.6633 31.7057 20.7522 31.9245V31.9274C20.8514 32.1418 20.9681 32.3153 21.1154 32.448C21.2666 32.5801 21.4462 32.6754 21.6404 32.7266C21.8329 32.7849 22.0341 32.8126 22.2383 32.8126C22.6918 32.8126 23.1104 32.728 23.4939 32.5866C23.8774 32.4451 24.2245 32.2482 24.5351 32.0091C24.8414 31.7714 25.1185 31.5045 25.3562 31.2099C25.5312 31.0057 25.6624 30.7943 25.7937 30.5872C25.7353 30.908 25.6799 31.2245 25.6799 31.4826C25.6799 31.9639 25.7718 32.3139 25.9745 32.5282C26.0727 32.6308 26.1913 32.7115 26.3227 32.7653C26.4541 32.819 26.5953 32.8446 26.7372 32.8403C27.0405 32.8403 27.3774 32.7572 27.7493 32.5924C28.1183 32.4276 28.493 32.2103 28.8722 31.942C28.967 31.8764 29.0574 31.8064 29.1493 31.7364L29.1566 31.7889C29.1961 31.9714 29.2704 32.1447 29.3753 32.2993L29.3782 32.3022C29.4949 32.4466 29.6262 32.5647 29.8026 32.6522C29.982 32.7426 30.2007 32.7849 30.4589 32.7849C30.8278 32.7849 31.2114 32.6989 31.6066 32.5297H31.6095C32.0003 32.3474 32.3926 32.1228 32.7834 31.8297C33.1743 31.5366 33.5782 31.188 33.9676 30.8132L33.9822 30.8001C33.9151 30.9547 33.8509 31.1093 33.7809 31.2653C33.4616 31.9711 33.1364 32.6828 32.798 33.4105C32.4582 34.1397 32.1184 34.8601 31.8005 35.5805L31.7991 35.5849L31.7976 35.5878C31.7522 35.7248 31.7016 35.86 31.6459 35.9932C31.5934 36.1274 31.522 36.2674 31.4782 36.4278C31.4243 36.5736 31.3689 36.718 31.3397 36.8755C31.2959 37.0359 31.2814 37.192 31.2814 37.3349C31.2814 37.6382 31.3674 37.8701 31.5322 37.9867C31.7031 38.1026 31.9063 38.1613 32.1126 38.1545C32.2905 38.1545 32.4539 38.1107 32.6011 38.0378L32.6026 38.0363C32.7489 37.9535 32.8788 37.8448 32.9861 37.7155C33.097 37.5842 33.1903 37.4355 33.2749 37.2663C33.3609 37.0957 33.4309 36.9134 33.4995 36.734L33.5024 36.7282V36.7224C33.5141 36.6684 33.5564 36.5459 33.6249 36.3665L33.8611 35.7307L34.1382 34.9841L34.4284 34.2228L34.6763 33.5884C34.7463 33.4076 34.7886 33.2822 34.8149 33.2166C34.8426 33.1611 34.8849 33.0766 34.9388 32.9395L35.1328 32.483L35.3676 31.9434L35.6184 31.3893L35.8255 30.8905L35.9757 30.5609L35.9772 30.5595C36.1011 30.3116 36.2513 30.0374 36.4176 29.7341C36.597 29.4322 36.7895 29.142 36.9951 28.8401C37.2168 28.5485 37.4355 28.2597 37.6703 27.9855C37.9051 27.7128 38.1515 27.4795 38.3995 27.2593C38.6517 27.0551 38.904 26.8772 39.1592 26.7562C39.3844 26.6392 39.6333 26.5754 39.8869 26.5695C40.0124 26.5695 40.0955 26.5958 40.1465 26.6264C40.1668 26.6456 40.1828 26.669 40.1933 26.6949C40.2039 26.7208 40.2088 26.7486 40.2078 26.7766C40.2078 26.8933 40.1451 27.0785 39.9978 27.2914C39.8461 27.5247 39.6682 27.7741 39.448 28.0497C39.2117 28.3268 38.977 28.617 38.7145 28.9203C38.452 29.2266 38.2011 29.5314 37.9649 29.8362C37.7474 30.1172 37.5468 30.4108 37.364 30.7155V30.717C37.2166 30.9535 37.1152 31.2157 37.0651 31.4899V31.5001C37.0638 31.5109 37.0618 31.5216 37.0593 31.5322C37.0549 31.5468 37.0505 31.5526 37.0505 31.5832V31.6664C37.0505 32.0411 37.1847 32.3445 37.4501 32.5501C37.717 32.7718 38.0932 32.8709 38.5584 32.8709C39.0674 32.8709 39.5355 32.7718 39.973 32.5734C40.4076 32.378 40.8553 32.1126 41.3147 31.7626H41.3161C41.7755 31.4184 42.2494 31.0087 42.7613 30.5332C43.2586 30.0593 43.839 29.5343 44.488 28.9582C44.6582 28.8237 44.79 28.6466 44.8701 28.4449C44.9561 28.2437 44.9998 28.0439 44.9998 27.847C45.0029 27.6816 44.9616 27.5185 44.8803 27.3745C44.8455 27.3088 44.7934 27.254 44.7297 27.2159C44.6659 27.1779 44.5929 27.1581 44.5186 27.1587C44.4351 27.1607 44.3532 27.1822 44.2794 27.2214C44.2021 27.2593 44.1205 27.3089 44.0315 27.3687C43.8798 27.4168 44.0563 27.4605 44.0753 27.5262C43.2907 28.2276 42.6111 28.8197 42.073 29.2849C41.5188 29.7691 41.0536 30.1424 40.6934 30.4341C40.4266 30.6499 40.147 30.8496 39.8563 31.032C39.6638 31.1472 39.5165 31.2026 39.4349 31.2026C39.3211 31.2026 39.2424 31.1734 39.2074 31.1399C39.1864 31.1196 39.17 31.095 39.1592 31.0679C39.1484 31.0407 39.1434 31.0116 39.1447 30.9824C39.1447 30.9722 39.1592 30.9299 39.1957 30.873C39.2336 30.8147 39.2905 30.7403 39.3663 30.6514L39.9467 29.9732C40.183 29.7093 40.4192 29.4176 40.6817 29.0982C40.9442 28.7774 41.1922 28.4464 41.4138 28.1037C41.6472 27.7683 41.8294 27.4226 41.9826 27.0828C42.1299 26.743 42.2101 26.4193 42.2101 26.1116C42.2147 25.8944 42.1614 25.68 42.0555 25.4903C41.9553 25.3161 41.8172 25.1666 41.6515 25.0528C41.4911 24.9362 41.3044 24.8487 41.1047 24.7889H41.1032C40.5991 24.648 40.0617 24.6856 39.5822 24.8953C39.2743 25.0237 38.9818 25.1861 38.7101 25.3795C38.4218 25.5805 38.1466 25.7997 37.8861 26.0358C37.6965 26.2145 37.5117 26.3983 37.332 26.587L37.3845 26.3303C37.4063 26.2239 37.4209 26.1247 37.434 26.0285V26.027C37.4486 25.9278 37.453 25.8578 37.453 25.8097C37.464 25.6115 37.3982 25.4167 37.2693 25.2658V25.2643H37.2663C37.1395 25.1331 36.9426 25.0762 36.683 25.0762C36.5051 25.0762 36.333 25.1783 36.1872 25.3533C36.0367 25.5413 35.908 25.7458 35.8036 25.9628C35.6911 26.1899 35.5928 26.4237 35.5091 26.6628L35.3151 27.2141V27.2155C35.248 27.4474 35.1736 27.6837 35.0963 27.9228C35.0759 27.9287 35.057 27.9345 35.0366 27.9432C34.9607 27.9693 34.8925 28.0139 34.8382 28.073L34.8426 28.0687C34.6705 28.2349 34.4766 28.4289 34.2607 28.636C34.0464 28.843 33.8189 29.0501 33.5841 29.2572C33.3478 29.4512 33.1086 29.6582 32.8695 29.8507C32.6332 30.0403 32.4028 30.208 32.1826 30.3539C31.9639 30.5012 31.7597 30.6164 31.5716 30.7053C31.432 30.7791 31.2785 30.8228 31.1209 30.8337C31.0334 30.8337 30.997 30.8132 30.9751 30.7724H30.9737C30.9389 30.7023 30.9228 30.6245 30.927 30.5464C30.927 30.3816 30.9562 30.192 31.0203 29.9776C31.0816 29.7647 31.1457 29.578 31.2099 29.4162L31.2507 29.3724L31.7962 27.9841C32.0032 27.4518 32.2249 26.8962 32.4743 26.3041L33.2224 24.4753C33.4703 23.8526 33.7211 23.2504 33.9559 22.6758L34.6486 21.0687C34.8557 20.5787 35.0366 20.166 35.1882 19.832L35.1868 19.835C35.2728 19.6643 35.3282 19.5039 35.3836 19.3683V19.3654C35.4337 19.2263 35.4608 19.08 35.4638 18.9322C35.4638 18.6464 35.3749 18.4218 35.2013 18.2862C35.0429 18.1584 34.8449 18.0898 34.6413 18.0923Z" fill="white"/>
</svg>
